<svg width="616" height="145" viewBox="0 0 616 145" fill="none" xmlns="http://www.w3.org/2000/svg">
<path d="M229.836 26.2973C229.665 24.4074 228.906 22.9385 227.559 21.8905C226.228 20.8253 224.326 20.2927 221.852 20.2927C220.215 20.2927 218.85 20.5074 217.758 20.937C216.667 21.3665 215.848 21.9592 215.302 22.7151C214.756 23.4539 214.474 24.3043 214.457 25.2665C214.423 26.0568 214.577 26.7526 214.918 27.3539C215.276 27.9552 215.788 28.4878 216.453 28.9517C217.136 29.3984 217.954 29.7935 218.91 30.1371C219.865 30.4808 220.94 30.7814 222.134 31.0391L226.637 32.07C229.23 32.6369 231.516 33.3929 233.495 34.3378C235.491 35.2827 237.163 36.408 238.51 37.7138C239.875 39.0195 240.907 40.5228 241.607 42.2237C242.306 43.9245 242.664 45.8316 242.681 47.9448C242.664 51.2778 241.828 54.1384 240.174 56.5265C238.519 58.9146 236.139 60.7443 233.035 62.0156C229.947 63.287 226.22 63.9227 221.852 63.9227C217.468 63.9227 213.647 63.2612 210.389 61.9383C207.131 60.6154 204.597 58.6053 202.789 55.908C200.981 53.2106 200.051 49.8003 200 45.6769H212.129C212.231 47.3778 212.683 48.7952 213.485 49.9291C214.287 51.063 215.387 51.9221 216.786 52.5062C218.202 53.0903 219.84 53.3824 221.699 53.3824C223.405 53.3824 224.855 53.1505 226.049 52.6866C227.26 52.2227 228.19 51.5785 228.838 50.7538C229.486 49.9291 229.819 48.9842 229.836 47.919C229.819 46.9225 229.512 46.0721 228.915 45.3677C228.318 44.6461 227.397 44.0276 226.151 43.5122C224.923 42.9796 223.354 42.49 221.443 42.0433L215.967 40.7547C211.429 39.7067 207.856 38.0144 205.246 35.6779C202.636 33.3241 201.339 30.1457 201.356 26.1427C201.339 22.8784 202.209 20.0178 203.966 17.561C205.723 15.1042 208.154 13.1885 211.259 11.8141C214.364 10.4396 217.903 9.75242 221.878 9.75242C225.938 9.75242 229.461 10.4482 232.446 11.8399C235.448 13.2143 237.777 15.1471 239.432 17.6383C241.086 20.1295 241.931 23.0158 241.965 26.2973H229.836Z" fill="#2A3441"/>
<path d="M271.264 23.6687V32.9462H246.468V23.6687H271.264ZM251.663 14.185H264.176V50.8053C264.176 51.5785 264.295 52.2056 264.534 52.6866C264.79 53.1505 265.156 53.4855 265.634 53.6917C266.112 53.8807 266.683 53.9752 267.349 53.9752C267.826 53.9752 268.329 53.9322 268.858 53.8463C269.404 53.7432 269.814 53.6573 270.087 53.5886L271.98 62.6857C271.383 62.8575 270.539 63.0723 269.447 63.33C268.372 63.5877 267.084 63.7509 265.583 63.8196C262.649 63.957 260.133 63.6134 258.034 62.7888C255.953 61.9469 254.358 60.6412 253.249 58.8716C252.158 57.102 251.629 54.8771 251.663 52.197V14.185Z" fill="#2A3441"/>
<path d="M277.648 63.2526V23.6687H289.802V30.8845H290.212C290.928 28.273 292.097 26.3316 293.717 25.0603C295.338 23.7717 297.223 23.1275 299.372 23.1275C299.952 23.1275 300.549 23.1704 301.164 23.2563C301.778 23.3251 302.349 23.4367 302.878 23.5914V34.544C302.281 34.3378 301.496 34.1746 300.524 34.0543C299.569 33.934 298.716 33.8739 297.965 33.8739C296.481 33.8739 295.142 34.2089 293.948 34.879C292.771 35.5318 291.841 36.451 291.159 37.6365C290.493 38.8047 290.161 40.1792 290.161 41.7598V63.2526H277.648Z" fill="#2A3441"/>
<path d="M324.308 64C320.197 64 316.649 63.1839 313.663 61.5518C310.695 59.9024 308.409 57.5573 306.806 54.5163C305.219 51.4582 304.426 47.8245 304.426 43.6153C304.426 39.5263 305.228 35.9528 306.831 32.8946C308.435 29.8193 310.695 27.4312 313.612 25.7303C316.529 24.0123 319.967 23.1532 323.924 23.1532C326.722 23.1532 329.281 23.5914 331.601 24.4676C333.921 25.3438 335.925 26.6409 337.614 28.359C339.303 30.077 340.617 32.1988 341.555 34.7243C342.493 37.2327 342.962 40.1104 342.962 43.3576V46.5016H308.802V39.1827H331.319C331.302 37.8426 330.987 36.6486 330.373 35.6006C329.759 34.5525 328.914 33.7365 327.839 33.1523C326.782 32.551 325.562 32.2503 324.18 32.2503C322.781 32.2503 321.528 32.5682 320.419 33.2039C319.31 33.8224 318.431 34.6728 317.783 35.7552C317.135 36.8204 316.794 38.0316 316.76 39.3889V46.8366C316.76 48.4516 317.075 49.869 317.706 51.0888C318.338 52.2915 319.233 53.2278 320.393 53.8978C321.553 54.5679 322.935 54.9029 324.539 54.9029C325.647 54.9029 326.654 54.7483 327.558 54.439C328.462 54.1298 329.238 53.6745 329.887 53.0732C330.535 52.4718 331.021 51.7331 331.345 50.8569L342.834 51.1919C342.357 53.7862 341.307 56.0454 339.687 57.9696C338.083 59.8767 335.977 61.3628 333.367 62.428C330.757 63.476 327.737 64 324.308 64Z" fill="#2A3441"/>
<path d="M360.433 63.9227C357.925 63.9227 355.699 63.5018 353.754 62.6599C351.826 61.8009 350.3 60.5123 349.174 58.7943C348.065 57.0591 347.51 54.8857 347.51 52.2743C347.51 50.0752 347.894 48.2197 348.662 46.7078C349.43 45.1959 350.487 43.9675 351.835 43.0226C353.183 42.0776 354.735 41.3646 356.492 40.8836C358.249 40.3853 360.126 40.0503 362.121 39.8785C364.356 39.6723 366.156 39.4576 367.521 39.2342C368.885 38.9937 369.875 38.6587 370.489 38.2292C371.12 37.7825 371.436 37.1554 371.436 36.3479V36.2191C371.436 34.8962 370.984 33.8739 370.079 33.1523C369.175 32.4307 367.956 32.07 366.42 32.07C364.766 32.07 363.435 32.4307 362.429 33.1523C361.422 33.8739 360.782 34.8704 360.509 36.1417L348.969 35.7294C349.31 33.3241 350.189 31.1766 351.605 29.2867C353.038 27.3797 354.999 25.885 357.49 24.8026C359.998 23.703 363.009 23.1532 366.523 23.1532C369.03 23.1532 371.342 23.4539 373.457 24.0552C375.572 24.6394 377.415 25.4984 378.984 26.6323C380.554 27.749 381.765 29.1235 382.618 30.7556C383.488 32.3878 383.923 34.2519 383.923 36.3479V63.2526H372.152V57.7377H371.845C371.146 59.0778 370.25 60.2117 369.158 61.1394C368.084 62.0672 366.813 62.763 365.346 63.2269C363.896 63.6908 362.258 63.9227 360.433 63.9227ZM364.296 55.676C365.644 55.676 366.855 55.4011 367.93 54.8514C369.022 54.3016 369.892 53.5456 370.54 52.5835C371.188 51.6042 371.512 50.4703 371.512 49.1818V45.4192C371.154 45.6082 370.719 45.78 370.207 45.9347C369.713 46.0893 369.167 46.2353 368.57 46.3728C367.973 46.5102 367.359 46.6305 366.727 46.7335C366.096 46.8366 365.491 46.9311 364.911 47.017C363.734 47.206 362.727 47.4981 361.891 47.8932C361.072 48.2884 360.441 48.8038 359.998 49.4395C359.571 50.058 359.358 50.7967 359.358 51.6558C359.358 52.9615 359.818 53.958 360.74 54.6452C361.678 55.3324 362.864 55.676 364.296 55.676Z" fill="#2A3441"/>
<path d="M391.574 63.2526V23.6687H403.472V30.936H403.907C404.726 28.5308 406.108 26.6323 408.053 25.2407C409.997 23.8491 412.317 23.1532 415.013 23.1532C417.742 23.1532 420.079 23.8577 422.024 25.2665C423.969 26.6753 425.205 28.5651 425.734 30.936H426.144C426.877 28.5823 428.31 26.701 430.442 25.2922C432.575 23.8662 435.091 23.1532 437.991 23.1532C441.71 23.1532 444.729 24.3559 447.049 26.7612C449.369 29.1493 450.529 32.4307 450.529 36.6056V63.2526H438.017V39.4919C438.017 37.5162 437.513 36.0129 436.507 34.9821C435.5 33.934 434.195 33.41 432.592 33.41C430.869 33.41 429.513 33.977 428.523 35.1109C427.551 36.2276 427.065 37.7309 427.065 39.6208V63.2526H415.038V39.3631C415.038 37.5248 414.543 36.073 413.554 35.0078C412.565 33.9426 411.26 33.41 409.639 33.41C408.547 33.41 407.583 33.6763 406.748 34.2089C405.912 34.7243 405.255 35.4631 404.777 36.4252C404.317 37.3873 404.086 38.5212 404.086 39.827V63.2526H391.574Z" fill="#2A3441"/>
<path d="M480.621 23.6687V32.9462H455.34V23.6687H480.621ZM460.611 63.2526V21.6585C460.611 18.6004 461.182 16.0663 462.325 14.0561C463.468 12.0288 465.055 10.517 467.085 9.52048C469.115 8.50683 471.46 8 474.122 8C475.862 8 477.499 8.13745 479.035 8.41234C480.587 8.67005 481.738 8.90198 482.489 9.10815L480.493 18.3341C480.033 18.1795 479.47 18.0506 478.804 17.9475C478.156 17.8445 477.542 17.7929 476.962 17.7929C475.495 17.7929 474.488 18.1193 473.943 18.7722C473.397 19.4251 473.124 20.3185 473.124 21.4524V63.2526H460.611Z" fill="#2A3441"/>
<path d="M499.153 10.474V63.2526H486.641V10.474H499.153Z" fill="#2A3441"/>
<path d="M525.465 64C521.336 64 517.788 63.1496 514.82 61.4487C511.869 59.7306 509.591 57.3425 507.988 54.2844C506.401 51.2091 505.608 47.6441 505.608 43.5895C505.608 39.5177 506.401 35.9528 507.988 32.8946C509.591 29.8193 511.869 27.4312 514.82 25.7303C517.788 24.0123 521.336 23.1532 525.465 23.1532C529.593 23.1532 533.133 24.0123 536.084 25.7303C539.052 27.4312 541.33 29.8193 542.916 32.8946C544.52 35.9528 545.321 39.5177 545.321 43.5895C545.321 47.6441 544.52 51.2091 542.916 54.2844C541.33 57.3425 539.052 59.7306 536.084 61.4487C533.133 63.1496 529.593 64 525.465 64ZM525.541 54.4906C527.043 54.4906 528.314 54.0267 529.354 53.0989C530.395 52.1712 531.188 50.8827 531.734 49.2333C532.297 47.584 532.578 45.6769 532.578 43.5122C532.578 41.3131 532.297 39.3889 531.734 37.7395C531.188 36.0902 530.395 34.8017 529.354 33.8739C528.314 32.9462 527.043 32.4823 525.541 32.4823C523.989 32.4823 522.676 32.9462 521.601 33.8739C520.543 34.8017 519.733 36.0902 519.17 37.7395C518.624 39.3889 518.351 41.3131 518.351 43.5122C518.351 45.6769 518.624 47.584 519.17 49.2333C519.733 50.8827 520.543 52.1712 521.601 53.0989C522.676 54.0267 523.989 54.4906 525.541 54.4906Z" fill="#2A3441"/>
<path d="M558.231 63.2526L547.995 23.6687H560.559L565.856 49.0272H566.189L571.869 23.6687H584.126L589.96 48.8468H590.293L595.436 23.6687H608L597.739 63.2526H584.356L578.215 40.1878H577.78L571.639 63.2526H558.231Z" fill="#2A3441"/>
<path d="M200 135.521V100.479H222.574V104.243H204.559V116.084H220.883V119.848H204.559V135.521H200Z" fill="#18A2D9"/>
<path d="M248.659 100.479V135.521H244.1V100.479H248.659Z" fill="#18A2D9"/>
<path d="M301.371 100.479V135.521H296.959L276.444 108.008H276.076V135.521H271.518V100.479H275.929L296.518 128.061H296.886V100.479H301.371Z" fill="#18A2D9"/>
<path d="M325.756 135.521H320.976L334.8 100.479H339.506L353.33 135.521H348.55L337.3 106.023H337.006L325.756 135.521ZM327.52 121.833H346.785V125.597H327.52V121.833Z" fill="#18A2D9"/>
<path d="M402.765 100.479V135.521H398.353L377.838 108.008H377.47V135.521H372.912V100.479H377.323L397.912 128.061H398.28V100.479H402.765Z" fill="#18A2D9"/>
<path d="M455.9 111.43H451.341C451.072 110.209 450.6 109.137 449.926 108.213C449.264 107.289 448.455 106.513 447.499 105.886C446.556 105.247 445.508 104.768 444.356 104.449C443.204 104.129 442.003 103.97 440.753 103.97C438.473 103.97 436.408 104.506 434.558 105.578C432.72 106.65 431.255 108.23 430.164 110.317C429.086 112.405 428.547 114.966 428.547 118C428.547 121.034 429.086 123.595 430.164 125.683C431.255 127.77 432.72 129.35 434.558 130.422C436.408 131.494 438.473 132.03 440.753 132.03C442.003 132.03 443.204 131.871 444.356 131.551C445.508 131.232 446.556 130.759 447.499 130.131C448.455 129.492 449.264 128.711 449.926 127.787C450.6 126.852 451.072 125.779 451.341 124.57H455.9C455.557 126.361 454.932 127.964 454.025 129.378C453.118 130.793 451.991 131.996 450.643 132.989C449.295 133.97 447.781 134.717 446.102 135.23C444.435 135.743 442.652 136 440.753 136C437.542 136 434.686 135.27 432.186 133.81C429.686 132.35 427.719 130.274 426.286 127.582C424.852 124.89 424.135 121.696 424.135 118C424.135 114.304 424.852 111.11 426.286 108.418C427.719 105.726 429.686 103.65 432.186 102.19C434.686 100.73 437.542 100 440.753 100C442.652 100 444.435 100.257 446.102 100.77C447.781 101.283 449.295 102.036 450.643 103.029C451.991 104.01 453.118 105.207 454.025 106.622C454.932 108.025 455.557 109.627 455.9 111.43Z" fill="#18A2D9"/>
<path d="M476.985 135.521V100.479H499.706V104.243H481.544V116.084H498.529V119.848H481.544V131.757H500V135.521H476.985Z" fill="#18A2D9"/>
<path fill-rule="evenodd" clip-rule="evenodd" d="M40.0363 8C22.3431 8 8 22.3455 8 40.0363H136.145V8H40.0363" fill="#18A2D9"/>
<path fill-rule="evenodd" clip-rule="evenodd" d="M104.109 56.0544H8.00244C8.00244 73.7476 22.3431 88.0906 40.0363 88.0906H136.145C136.145 70.3975 121.802 56.0544 104.109 56.0544" fill="#18A2D9"/>
<path fill-rule="evenodd" clip-rule="evenodd" d="M40.0363 136.145H72.0725V104.109H8C8 121.802 22.3431 136.145 40.0363 136.145" fill="#18A2D9"/>
</svg>
