<svg width="37" height="40" viewBox="0 0 37 40" fill="none" xmlns="http://www.w3.org/2000/svg">
<path d="M17.1158 39.2872C18.7666 40.24 20.7987 40.2376 22.4445 39.2798L25.9492 37.2429L13.4776 30.043C9.70811 27.8674 7.38654 23.8455 7.38654 19.492V5.08492L3.86707 7.10455C2.21624 8.05247 1.19653 9.8122 1.19653 11.7155V23.0239C1.19653 27.3997 3.53046 31.4439 7.31972 33.6317L17.1134 39.2846L17.1158 39.2872Z" fill="black"/>
<path d="M21.7069 1.28824C19.7319 2.18667 18.2766 4.02561 17.9103 6.2358C17.8534 6.58726 17.8212 6.94613 17.8212 7.31243V16.9254C17.8212 18.0317 18.1207 19.096 18.6552 20.0217C19.1874 20.9473 19.9621 21.7344 20.92 22.2863L23.8899 23.9966C25.3848 24.8578 27.1199 25.3504 28.9687 25.3504C31.8991 25.3504 34.5424 24.1154 36.4036 22.1378V27.667C36.4036 28.7684 36.109 29.8252 35.5794 30.746C35.0447 31.674 34.2727 32.4635 33.3122 33.0179C31.4015 34.1219 29.0454 34.1219 27.1347 33.0179L16.1852 26.6968C13.3711 25.073 11.6386 22.0685 11.6386 18.8213V6.18135C11.6386 5.07749 11.9331 4.01324 12.4653 3.09007C12.9974 2.16441 13.7696 1.37982 14.7249 0.827893C16.6406 -0.275964 18.9943 -0.275964 20.9051 0.827893L21.7069 1.29072V1.28824Z" fill="black"/>
<path d="M31.8546 7.14906C34.6686 8.77266 36.4036 11.7749 36.4036 15.0246V15.0345C36.4036 19.0465 33.2629 22.4173 29.2534 22.5684C28.4909 22.5957 27.7535 22.5089 27.0556 22.3234C28.8969 21.2888 30.2161 19.336 30.2161 16.9229C30.2161 15.2918 29.5776 13.7549 28.4737 12.6139C28.0801 12.2055 27.6273 11.8491 27.1199 11.5571L20.5957 7.79009V7.32972C20.5957 5.19626 22.3233 3.47118 24.4544 3.47118C25.1102 3.47118 25.7288 3.63453 26.2685 3.92411L31.8546 7.14906Z" fill="black"/>
</svg>
