<svg id="vrt" data-name="vrt" xmlns="http://www.w3.org/2000/svg" viewBox="0 0 2000 2000"><defs><style>.cls-1{fill:#a44fd8;}.cls-2{fill:#fff;}</style></defs><path class="cls-1" d="M1000,2000c554.17,0,1000-445.83,1000-1000S1554.17,0,1000,0,0,445.83,0,1000,445.83,2000,1000,2000Z"/><path class="cls-2" d="M505,1012.25q0-346.32,0-692.66C505,293,505,293,531,293c27.58,0,55.19.48,82.76-.21,12.16-.3,16.32,4.51,16.2,16.09-.31,29.36.34,58.73-.21,88.09-.23,12.32,3.39,17.65,16.65,17.21,25.83-.85,51.73-.78,77.57,0,12.48.36,15.89-4.78,15.71-16.31-.47-29.36.18-58.73-.25-88.09-.18-12.38,4.08-17.35,17.08-17,29.87.79,59.8,1,89.65-.07,15.11-.54,18.69,5.82,18.42,19.27-.57,28.2.37,56.44-.36,84.63-.35,13.65,4.48,18,18.06,17.58,72.56-2.14,144.76,1.24,215.17,20.81,144.74,40.22,256.11,123.63,328.64,256.77,44.7,82,66.36,170.42,74.48,263,9.36,106.75,1.1,211.79-35.34,312.5-73.84,204-220.11,323.43-433.48,358.3-48.46,7.92-98.35,7.6-147.63,9.63-14.69.61-20.77,4.18-20,19.66,1.08,20.67-.06,41.44.31,62.17.21,11.63-4.2,16.41-16.26,16.18q-45.68-.89-91.38,0c-12.66.27-17.67-4.3-17.39-17,.48-21.87-.27-43.76.19-65.63.24-11.2-4.23-15.34-15.28-15.15q-39.64.68-79.31,0c-11.15-.19-15.44,4.22-15.21,15.28.43,21.29-.26,42.61.19,63.91.26,12.5-2.92,19.06-17.44,18.61-30.43-1-60.92-.66-91.37-.12-11.95.21-16.61-4.46-16.35-16.18.4-18.42.05-36.85.05-55.28Zm359.53,12.22h.66c0,160,.29,320.09-.4,480.13-.07,17.86,5.2,23.46,22.48,21.89,42.77-3.86,86.14-3.6,128.36-10.53,130.13-21.37,229.37-89.9,295.13-204.68,40.58-70.82,60.46-148.13,67-229.47,8-100-1.68-197.39-39.87-290.7C1292,679.17,1214.53,598.6,1100.67,554.8c-69.26-26.65-141.32-32.28-214.65-31.5-18,.2-21.93,5.9-21.87,22.77C864.71,705.53,864.48,865,864.48,1024.47Zm-124.91,1.79q0-241,.26-481.95c0-15.13-3.22-22-20-20.87-21.75,1.48-43.66.35-65.51.36-24,0-24.07,0-24.07,24.79q0,453.45,0,906.89c0,17.28.91,34.61-.26,51.81-1.07,15.71,5.29,20,20,19.26,20.07-1,40.22-.22,60.34-.27,32.18-.08,29.25,2.76,29.26-30.17Q739.63,1261.18,739.57,1026.26Z"/></svg>
